HIERARCHY
ROOT Hips
{
	OFFSET 0.000000 0.000000 0.000000
	CHANNELS 6 Xposition Yposition Zposition Zrotation Yrotation Xrotation 
	JOINT LHipJoint
	{
		OFFSET 0.000000 0.000000 0.000000
		CHANNELS 3 Zrotation Yrotation Xrotation
		JOINT LeftUpLeg
		{
			OFFSET 1.363060 -1.794630 0.839290
			CHANNELS 3 Zrotation Yrotation Xrotation
			JOINT LeftLeg
			{
				OFFSET 2.448110 -6.726130 0.000000
				CHANNELS 3 Zrotation Yrotation Xrotation
				JOINT LeftFoot
				{
					OFFSET 2.562200 -7.039590 0.000000
					CHANNELS 3 Zrotation Yrotation Xrotation
					JOINT LeftToeBase
					{
						OFFSET 0.157640 -0.433110 2.322550
						CHANNELS 3 Zrotation Yrotation Xrotation
						End Site
						{
							OFFSET 0.000000 0.000000 0.000000
						}
					}
				}
			}
		}
	}
	JOINT RHipJoint
	{
		OFFSET 0.000000 0.000000 0.000000
		CHANNELS 3 Zrotation Yrotation Xrotation
		JOINT RightUpLeg
		{
			OFFSET -1.305520 -1.794630 0.839290
			CHANNELS 3 Zrotation Yrotation Xrotation
			JOINT RightLeg
			{
				OFFSET -2.542530 -6.985550 0.000000
				CHANNELS 3 Zrotation Yrotation Xrotation
				JOINT RightFoot
				{
					OFFSET -2.568260 -7.056230 0.000000
					CHANNELS 3 Zrotation Yrotation Xrotation
					JOINT RightToeBase
					{
						OFFSET -0.164730 -0.452590 2.363150
						CHANNELS 3 Zrotation Yrotation Xrotation
						End Site
						{
							OFFSET 0.000000 0.000000 0.000000
						}
					}
				}
			}
		}
	}
	JOINT LowerBack
	{
		OFFSET 0.000000 0.000000 0.000000
		CHANNELS 3 Zrotation Yrotation Xrotation
		JOINT Spine
		{
			OFFSET 0.028270 2.035590 -0.193380
			CHANNELS 3 Zrotation Yrotation Xrotation
			JOINT Spine1
			{
				OFFSET 0.056720 2.048850 -0.042750
				CHANNELS 3 Zrotation Yrotation Xrotation
				JOINT Neck
				{
					OFFSET 0.000000 0.000000 0.000000
					CHANNELS 3 Zrotation Yrotation Xrotation
					JOINT Neck1
					{
						OFFSET -0.054170 1.746240 0.172020
						CHANNELS 3 Zrotation Yrotation Xrotation
						JOINT Head
						{
							OFFSET 0.104070 1.761360 -0.123970
							CHANNELS 3 Zrotation Yrotation Xrotation
							End Site
							{
								OFFSET 0.000000 0.000000 0.000000
							}
						}
					}
				}
				JOINT LeftShoulder
				{
					OFFSET 0.000000 0.000000 0.000000
					CHANNELS 3 Zrotation Yrotation Xrotation
					JOINT LeftArm
					{
						OFFSET 3.362410 1.200890 -0.311210
						CHANNELS 3 Zrotation Yrotation Xrotation
						JOINT LeftForeArm
						{
							OFFSET 4.983000 -0.000000 -0.000000
							CHANNELS 3 Zrotation Yrotation Xrotation
							JOINT LeftHand
							{
								OFFSET 3.483560 -0.000000 -0.000000
								CHANNELS 3 Zrotation Yrotation Xrotation
								JOINT LeftFingerBase
								{
									OFFSET 0.000000 0.000000 0.000000
									CHANNELS 3 Zrotation Yrotation Xrotation
									JOINT LeftHandIndex1
									{
										OFFSET 0.715260 -0.000000 -0.000000
										CHANNELS 3 Zrotation Yrotation Xrotation
										End Site
										{
											OFFSET 0.000000 0.000000 0.000000
										}
									}
								}
								JOINT LThumb
								{
									OFFSET 0.000000 0.000000 0.000000
									CHANNELS 3 Zrotation Yrotation Xrotation
									End Site
									{
										OFFSET 0.000000 0.000000 0.000000
									}
								}
							}
						}
					}
				}
				JOINT RightShoulder
				{
					OFFSET 0.000000 0.000000 0.000000
					CHANNELS 3 Zrotation Yrotation Xrotation
					JOINT RightArm
					{
						OFFSET -3.136600 1.374050 -0.404650
						CHANNELS 3 Zrotation Yrotation Xrotation
						JOINT RightForeArm
						{
							OFFSET -5.241900 -0.000000 -0.000000
							CHANNELS 3 Zrotation Yrotation Xrotation
							JOINT RightHand
							{
								OFFSET -3.444170 -0.000000 -0.000000
								CHANNELS 3 Zrotation Yrotation Xrotation
								JOINT RightFingerBase
								{
									OFFSET 0.000000 0.000000 0.000000
									CHANNELS 3 Zrotation Yrotation Xrotation
									JOINT RightHandIndex1
									{
										OFFSET -0.622530 -0.000000 -0.000000
										CHANNELS 3 Zrotation Yrotation Xrotation
										End Site
										{
											OFFSET 0.000000 0.000000 0.000000
										}
									}
								}
								JOINT RThumb
								{
									OFFSET 0.000000 0.000000 0.000000
									CHANNELS 3 Zrotation Yrotation Xrotation
									End Site
									{
										OFFSET 0.000000 0.000000 0.000000
									}
								}
							}
						}
					}
				}
			}
		}
	}
}
MOTION
Frames: 10
Frame Time: 0.008333
0.908546 17.430817 5.145988 6.505217 4.827364 2.985269 1.517440 2.772294 1.777491 -30.070419 0.369818 6.652649 0.205529 4.836150 17.417539 1.002105 -3.276050 -4.417759 0.242600 -3.148005 -8.692876 -3.262629 -2.697947 0.862764 11.889829 14.791144 -29.617951 -0.306091 -5.153346 13.575813 2.697241 -15.634581 3.284291 -0.094251 1.952069 -5.374193 -6.275720 -1.955035 4.883688 0.681171 -3.253928 -1.459494 5.886044 -1.350790 -2.843691 -7.754316 -2.559564 -13.491664 3.771254 -2.351227 14.445809 2.917215 -1.543194 9.815703 -7.303420 2.669393 -2.199483 -79.709859 -8.069913 29.559331 13.062278 -23.681590 -3.468973 -0.925006 -2.878179 9.440230 14.853905 22.075837 6.635282 -7.125000 0.000000 0.000000 -15.289351 55.241446 -3.911454 5.881062 -2.341921 -2.164588 84.157652 -4.729636 2.828780 -13.253464 19.972556 -2.953454 1.070233 -0.607165 9.884922 -15.261895 11.054276 -3.340623 7.125000 0.000000 0.000000 7.513097 -18.144526 4.840463
0.899290 17.428298 5.260452 6.413459 4.941191 2.947856 1.521677 2.791691 1.795482 -29.848558 0.284294 7.037643 0.212494 4.836126 17.442004 1.063616 -3.621186 -4.274732 0.317201 -3.609814 -9.982627 -3.260520 -2.705423 0.856293 12.023800 14.825141 -29.166090 -0.213924 -4.801483 12.664196 2.639054 -15.168890 2.613095 -0.137152 2.373806 -6.540380 -6.219181 -1.984060 4.952111 0.703888 -3.291361 -1.473132 5.936167 -1.368507 -2.917026 -7.832264 -2.595021 -13.440253 3.862925 -2.389318 14.373962 2.967045 -1.555781 9.785909 -7.291157 2.676378 -2.204211 -79.743891 -8.196006 29.579847 13.205198 -23.892107 -3.547976 -0.917355 -2.868068 9.363487 14.843757 21.971861 6.601446 -7.125000 0.000000 0.000000 -15.241253 55.126138 -3.855561 5.879485 -2.341592 -2.166143 84.212581 -4.988217 2.451467 -13.215286 19.917315 -2.935261 1.066235 -0.542048 9.976607 -15.152474 10.377581 -3.102270 7.125000 0.000000 0.000000 7.603692 -18.913977 4.769788
0.888865 17.421910 5.374196 6.288153 5.051992 2.959757 1.528189 2.808469 1.809766 -29.593867 0.201331 7.380970 0.223247 4.845970 17.496090 1.135643 -4.061750 -4.003672 0.339689 -3.745241 -10.361178 -3.262503 -2.711030 0.852480 12.231070 14.843919 -28.875150 -0.150920 -4.553937 12.036460 2.541448 -14.585753 2.081591 -0.181960 2.731766 -7.533773 -6.136231 -2.012384 4.929814 0.723413 -3.320777 -1.474623 5.961752 -1.387964 -2.900158 -7.855498 -2.611115 -13.558505 3.925718 -2.404938 14.430438 2.996163 -1.558123 9.842201 -7.277329 2.675767 -2.211641 -79.714325 -8.374224 29.735768 13.350144 -24.108101 -3.627062 -0.894493 -2.878032 9.091023 14.777609 22.059548 6.589697 -7.125000 0.000000 0.000000 -15.366481 55.201098 -3.917066 5.888435 -2.344450 -2.165652 84.285171 -5.122076 1.998976 -13.129648 19.790359 -2.896040 1.052662 -0.495088 9.826393 -14.906223 9.926783 -2.911994 7.125000 0.000000 0.000000 7.798913 -19.433152 4.802541
0.878125 17.414330 5.487718 6.154240 5.158594 2.985807 1.535570 2.824440 1.822943 -29.332559 0.121341 7.711884 0.235337 4.859266 17.560461 1.208948 -4.520504 -3.698537 0.347518 -3.787618 -10.480063 -3.265699 -2.716082 0.849563 12.466344 14.847690 -28.639921 -0.097937 -4.343013 11.508126 2.429353 -13.959942 1.614959 -0.229091 3.077880 -8.495979 -6.046134 -2.038877 4.881880 0.741058 -3.345853 -1.473285 5.978184 -1.406650 -2.860491 -7.861659 -2.622319 -13.717993 3.979156 -2.415814 14.522138 3.018543 -1.558358 9.920979 -7.263188 2.673281 -2.220000 -79.665000 -8.561954 29.930840 13.496225 -24.326517 -3.706456 -0.867694 -2.893817 8.763259 14.699825 22.203211 6.586729 -7.125000 0.000000 0.000000 -15.537186 55.332685 -4.011904 5.900214 -2.348480 -2.164525 84.365877 -5.224073 1.521059 -13.029068 19.641100 -2.850227 1.036435 -0.455703 9.592903 -14.620829 9.567060 -2.743721 7.125000 0.000000 0.000000 8.023431 -19.850932 4.869704
0.868401 17.406128 5.601127 6.060819 5.177840 2.992262 1.547780 2.839939 1.836429 -29.158900 0.099839 8.047232 0.252550 4.885158 17.660551 1.231794 -4.696758 -3.515117 0.383895 -3.975795 -11.008967 -3.268296 -2.721390 0.849163 12.857921 14.574471 -28.594395 -0.077337 -4.268560 11.344267 2.248378 -13.142149 1.752192 -0.322689 3.621046 -10.016174 -5.978016 -2.022262 4.880482 0.734327 -3.319882 -1.494228 5.948212 -1.390834 -2.938714 -7.853018 -2.658916 -13.611927 4.015606 -2.480936 14.520317 3.028013 -1.584803 9.906602 -7.253316 2.681923 -2.231383 -79.600786 -8.584109 30.079987 13.656262 -24.565424 -3.793410 -0.858324 -2.903200 8.536185 14.762214 22.296754 6.639966 -7.125000 0.000000 0.000000 -15.525753 55.442681 -4.050648 5.902665 -2.358088 -2.162938 84.520639 -5.480079 0.970487 -12.912136 19.474483 -2.797933 1.026515 -0.472015 9.086776 -14.393029 9.815890 -2.774670 7.125000 0.000000 0.000000 8.187126 -19.581341 5.021620
0.860031 17.398908 5.715482 5.972557 5.202902 2.959272 1.560327 2.856235 1.850344 -28.994345 0.070897 8.420635 0.273035 4.918091 17.782211 1.249404 -4.842627 -3.348102 0.422995 -4.171949 -11.561155 -3.272231 -2.727876 0.846724 13.282929 14.203214 -28.542635 -0.064219 -4.226015 11.270972 2.051268 -12.268517 2.033767 -0.410417 4.105605 -11.375046 -5.907862 -2.012788 4.918516 0.735827 -3.304223 -1.507649 5.936237 -1.380788 -3.014494 -7.850922 -2.686604 -13.509027 4.021274 -2.527432 14.496912 3.026815 -1.605871 9.880907 -7.241907 2.689414 -2.240165 -79.581277 -8.613116 30.172200 13.818330 -24.804287 -3.882031 -0.853335 -2.906856 8.367808 14.839505 22.334786 6.686226 -7.125000 0.000000 0.000000 -15.465115 55.497444 -4.055177 5.906160 -2.368152 -2.161371 84.634471 -5.728622 0.466506 -12.799513 19.316003 -2.748178 1.016910 -0.492347 8.609178 -14.175092 10.098392 -2.816163 7.125000 0.000000 0.000000 8.342455 -19.273845 5.176505
0.854759 17.393929 5.831996 5.896085 5.241255 2.836124 1.573648 2.874349 1.865238 -28.850602 0.024949 8.881021 0.300998 4.967122 17.953177 1.255045 -4.919043 -3.218585 0.468321 -4.386340 -12.166565 -3.279227 -2.737053 0.839626 13.784351 13.607874 -28.476630 -0.068203 -4.256406 11.404682 1.817277 -11.267256 2.645268 -0.484729 4.456205 -12.365181 -5.833055 -2.019635 5.046684 0.756143 -3.312132 -1.503874 5.965398 -1.383928 -3.084690 -7.863787 -2.693933 -13.413363 3.956584 -2.531353 14.424172 3.001236 -1.614648 9.829345 -7.226988 2.694275 -2.243003 -79.663951 -8.657784 30.134277 13.985043 -25.043049 -3.974466 -0.858361 -2.897418 8.333594 14.950860 22.245938 6.716540 -7.125000 0.000000 0.000000 -15.292009 55.425962 -3.981500 5.912040 -2.379259 -2.159849 84.654747 -5.960104 0.069018 -12.696741 19.176122 -2.704225 1.008024 -0.521864 8.196787 -13.979697 10.457860 -2.881756 7.125000 0.000000 0.000000 8.478665 -18.879708 5.338179
0.847542 17.388916 5.949617 5.828021 5.262678 2.744434 1.587536 2.888864 1.874633 -28.721856 -0.058282 9.310387 0.329151 5.020020 18.133604 1.251256 -4.975493 -2.979841 0.511697 -4.582617 -12.722195 -3.288494 -2.743610 0.830994 14.282889 13.038720 -28.511441 -0.088509 -4.360352 11.730396 1.594720 -10.346401 3.401940 -0.557025 4.774182 -13.266896 -5.794089 -2.029771 5.080697 0.777775 -3.319100 -1.470837 6.014279 -1.396286 -3.016339 -7.881490 -2.700363 -13.446005 3.933878 -2.527978 14.333184 2.993969 -1.613144 9.793946 -7.214961 2.695632 -2.240301 -79.730932 -8.842941 30.077171 14.115418 -25.229229 -4.047655 -0.862078 -2.887470 8.278938 15.043154 22.140451 6.733367 -7.125000 0.000000 0.000000 -15.129811 55.333192 -3.903526 5.927337 -2.387215 -2.151048 84.650818 -6.026462 -0.279957 -12.565261 18.979053 -2.643051 1.013972 -0.521999 7.922406 -13.942114 10.457934 -2.876779 7.125000 0.000000 0.000000 8.502127 -18.876935 5.353388
0.838872 17.383878 6.068064 5.766235 5.271456 2.676238 1.601847 2.900689 1.879921 -28.604310 -0.169359 9.716586 0.357447 5.075804 18.321096 1.240425 -5.017031 -2.659522 0.553617 -4.765366 -13.240648 -3.299456 -2.748212 0.821214 14.779274 12.489123 -28.621546 -0.121005 -4.519231 12.199505 1.380704 -9.485595 4.267030 -0.627815 5.067792 -14.102576 -5.781890 -2.042363 5.044392 0.800390 -3.325366 -1.415947 6.077887 -1.415527 -2.844516 -7.902807 -2.706122 -13.574471 3.942529 -2.519154 14.228567 3.000378 -1.603964 9.770619 -7.205094 2.694371 -2.233461 -79.786193 -9.133020 30.005739 14.218653 -25.376140 -4.106470 -0.864819 -2.877140 8.209015 15.121210 22.022538 6.740123 -7.125000 0.000000 0.000000 -14.975759 55.224524 -3.822342 5.949666 -2.392818 -2.136812 84.628812 -5.969498 -0.592699 -12.412340 18.739274 -2.569016 1.031000 -0.500189 7.751096 -14.022390 10.189601 -2.819096 7.125000 0.000000 0.000000 8.441384 -19.166446 5.259213
0.826460 17.378200 6.184296 5.588893 5.206938 2.653948 1.615277 2.911512 1.882928 -28.397175 -0.341716 10.045930 0.384422 5.137532 18.516700 1.199726 -4.892996 -2.326371 0.639850 -5.106584 -14.215141 -3.315904 -2.750461 0.815965 15.345256 12.178752 -28.826037 -0.175427 -4.759295 12.885848 1.238602 -8.917686 4.845669 -0.600563 4.957927 -13.789224 -5.677244 -2.019763 4.971655 0.822354 -3.277320 -1.356287 6.097963 -1.410165 -2.648097 -7.908167 -2.736178 -13.826258 4.018495 -2.547866 14.168954 3.028531 -1.603131 9.801118 -7.191601 2.692698 -2.232733 -79.799467 -9.402776 29.980933 14.363644 -25.583178 -4.185085 -0.867839 -2.882380 8.040001 15.276415 22.075500 6.829874 -7.125000 0.000000 0.000000 -14.836365 55.313541 -3.817554 5.972723 -2.394717 -2.121286 84.678379 -5.848055 -1.032481 -12.272266 18.515571 -2.502946 1.033934 -0.473469 7.579012 -13.964167 9.885848 -2.721808 7.125000 0.000000 0.000000 8.490137 -19.503085 5.225271
